<?xml version="1.0" encoding="iso-8859-1"?>
<!-- Generator: Adobe Illustrator 19.0.0, SVG Export Plug-In . SVG Version: 6.00 Build 0)  -->
<svg version="1.1" id="Layer_1" xmlns="http://www.w3.org/2000/svg" xmlns:xlink="http://www.w3.org/1999/xlink" x="0px" y="0px"
	 viewBox="0 0 512 512" style="enable-background:new 0 0 512 512;" xml:space="preserve">
<g>
	<g>
		<path d="M110.151,370.531h-7.672c-5.632,0-10.199,4.566-10.199,10.199c0,5.633,4.567,10.199,10.199,10.199h7.672
			c5.632,0,10.199-4.566,10.199-10.199C120.351,375.097,115.783,370.531,110.151,370.531z"/>
	</g>
</g>
<g>
	<g>
		<path d="M69.274,370.531H10.199C4.567,370.531,0,375.097,0,380.73c0,5.633,4.567,10.199,10.199,10.199h59.075
			c5.632,0,10.199-4.566,10.199-10.199C79.473,375.097,74.906,370.531,69.274,370.531z"/>
	</g>
</g>
<g>
	<g>
		<path d="M121.746,96.267c-25.248,0-45.789,20.54-45.789,45.788s20.541,45.789,45.789,45.789s45.789-20.541,45.789-45.789
			S146.994,96.267,121.746,96.267z M121.747,167.446c-14,0-25.391-11.391-25.391-25.391s11.39-25.39,25.391-25.39
			c14,0,25.391,11.389,25.391,25.39S135.747,167.446,121.747,167.446z"/>
	</g>
</g>
<g>
	<g>
		<path d="M121.746,49.144c-5.632,0-10.199,4.566-10.199,10.199v10.448c0,5.633,4.567,10.199,10.199,10.199
			s10.199-4.566,10.199-10.199V59.344C131.945,53.711,127.378,49.144,121.746,49.144z"/>
	</g>
</g>
<g>
	<g>
		<path d="M78.22,82.873l-7.388-7.387c-3.982-3.982-10.441-3.982-14.424,0.001c-3.983,3.984-3.983,10.441,0.001,14.425l7.389,7.387
			c1.991,1.991,4.601,2.986,7.211,2.986s5.221-0.996,7.212-2.987C82.204,93.314,82.204,86.857,78.22,82.873z"/>
	</g>
</g>
<g>
	<g>
		<path d="M39.612,44.268l-2.823-2.823c-3.981-3.983-10.44-3.984-14.424-0.001s-3.984,10.441-0.001,14.424l2.824,2.822
			c1.991,1.992,4.602,2.988,7.212,2.988c2.61,0,5.22-0.995,7.211-2.986C43.593,54.709,43.594,48.251,39.612,44.268z"/>
	</g>
</g>
<g>
	<g>
		<path d="M49.481,130.115H39.034c-5.632,0-10.199,4.566-10.199,10.199c0,5.633,4.567,10.199,10.199,10.199h10.447
			c5.632,0,10.199-4.566,10.199-10.199C59.681,134.681,55.113,130.115,49.481,130.115z"/>
	</g>
</g>
<g>
	<g>
		<path d="M76.989,183.839c-3.984-3.983-10.44-3.983-14.424,0l-7.387,7.387c-3.983,3.983-3.983,10.441,0,14.425
			c1.992,1.992,4.602,2.987,7.212,2.987s5.22-0.995,7.212-2.987l7.387-7.387C80.971,194.281,80.971,187.823,76.989,183.839z"/>
	</g>
</g>
<g>
	<g>
		<path d="M120.003,209.048c-5.632,0-10.199,4.566-10.199,10.199v24.814c0,5.633,4.567,10.199,10.199,10.199
			s10.199-4.566,10.199-10.199v-24.814C130.202,213.614,125.635,209.048,120.003,209.048z"/>
	</g>
</g>
<g>
	<g>
		<path d="M185.341,192.458l-7.386-7.387c-3.984-3.983-10.44-3.983-14.425,0c-3.983,3.983-3.983,10.441,0,14.425l7.387,7.387
			c1.992,1.992,4.602,2.987,7.212,2.987s5.22-0.995,7.212-2.987C189.324,202.9,189.324,196.441,185.341,192.458z"/>
	</g>
</g>
<g>
	<g>
		<path d="M229.482,131.857h-36.567c-5.632,0-10.199,4.566-10.199,10.199c0,5.633,4.567,10.199,10.199,10.199h36.567
			c5.632,0,10.199-4.566,10.199-10.199C239.681,136.423,235.114,131.857,229.482,131.857z"/>
	</g>
</g>
<g>
	<g>
		<path d="M194.221,69.07c-3.984-3.983-10.44-3.983-14.425,0l-12.611,12.611c-3.983,3.983-3.983,10.441,0,14.425
			c1.993,1.992,4.603,2.987,7.213,2.987c2.611,0,5.22-0.995,7.212-2.987l12.611-12.611C198.204,79.512,198.204,73.053,194.221,69.07
			z"/>
	</g>
</g>
<g>
	<g>
		<path d="M395.729,419.487H202.964c-5.632,0-10.199,4.566-10.199,10.199c0,5.633,4.567,10.199,10.199,10.199h192.765
			c5.632,0,10.199-4.566,10.199-10.199C405.928,424.053,401.361,419.487,395.729,419.487z"/>
	</g>
</g>
<g>
	<g>
		<path d="M468.143,419.487h-28.558c-5.632,0-10.199,4.566-10.199,10.199c0,5.633,4.567,10.199,10.199,10.199h28.558
			c5.632,0,10.199-4.566,10.199-10.199C478.343,424.053,473.775,419.487,468.143,419.487z"/>
	</g>
</g>
<g>
	<g>
		<path d="M129.53,453.144h-28.558c-5.632,0-10.199,4.566-10.199,10.199c0,5.633,4.567,10.199,10.199,10.199h28.558
			c5.632,0,10.199-4.566,10.199-10.199C139.729,457.71,135.162,453.144,129.53,453.144z"/>
	</g>
</g>
<g>
	<g>
		<path d="M356.821,109.22h-48.756c-5.632,0-10.199,4.566-10.199,10.199c0,5.633,4.566,10.199,10.199,10.199h48.756
			c5.632,0,10.199-4.566,10.199-10.199C367.02,113.786,362.453,109.22,356.821,109.22z"/>
	</g>
</g>
<g>
	<g>
		<path d="M410.802,109.22h-18.284c-5.632,0-10.199,4.566-10.199,10.199c0,5.633,4.566,10.199,10.199,10.199h18.284
			c5.632,0,10.199-4.566,10.199-10.199C421.001,113.786,416.433,109.22,410.802,109.22z"/>
	</g>
</g>
<g>
	<g>
		<path d="M337.667,172.776h-48.756c-5.632,0-10.199,4.566-10.199,10.199c0,5.633,4.566,10.199,10.199,10.199h48.756
			c5.632,0,10.199-4.566,10.199-10.199C347.866,177.342,343.299,172.776,337.667,172.776z"/>
	</g>
</g>
<g>
	<g>
		<path d="M253.214,172.776H234.93c-5.633,0-10.199,4.566-10.199,10.199c0,5.633,4.567,10.199,10.199,10.199h18.283
			c5.632,0,10.199-4.566,10.199-10.199C263.413,177.342,258.846,172.776,253.214,172.776z"/>
	</g>
</g>
<g>
	<g>
		<path d="M510.413,375.351L435.31,256.955l-43.994-69.355c-1.865-2.941-5.104-4.727-8.587-4.737c-0.009,0-0.017,0-0.026,0
			c-3.473,0-6.709,1.768-8.585,4.693l-44.489,69.355l-66.022,102.926l-49.626-77.363c-1.876-2.924-5.111-4.693-8.585-4.693
			s-6.709,1.768-8.585,4.693l-59.548,92.832c-2.014,3.139-2.153,7.126-0.364,10.399c1.788,3.272,5.22,5.308,8.949,5.308h355.952
			c3.72,0,7.145-2.026,8.938-5.285C512.53,382.469,512.406,378.492,510.413,375.351z M164.508,370.615l40.889-63.743l40.89,63.743
			H164.508z M382.657,212.029l25.494,40.191h-51.275L382.657,212.029z M280.929,370.615l62.861-97.997h77.3l62.163,97.997H280.929z"
			/>
	</g>
</g>
<g>
	<g>
		<path d="M370.231,293.017h-20.398c-5.632,0-10.199,4.566-10.199,10.199c0,5.633,4.567,10.199,10.199,10.199h20.398
			c5.632,0,10.199-4.566,10.199-10.199C380.43,297.583,375.863,293.017,370.231,293.017z"/>
	</g>
</g>
<g>
	<g>
		<path d="M424.287,332.794h-19.378c-5.632,0-10.199,4.566-10.199,10.199s4.567,10.199,10.199,10.199h19.378
			c5.632,0,10.199-4.566,10.199-10.199S429.919,332.794,424.287,332.794z"/>
	</g>
</g>
<g>
</g>
<g>
</g>
<g>
</g>
<g>
</g>
<g>
</g>
<g>
</g>
<g>
</g>
<g>
</g>
<g>
</g>
<g>
</g>
<g>
</g>
<g>
</g>
<g>
</g>
<g>
</g>
<g>
</g>
</svg>
